<svg xmlns="http://www.w3.org/2000/svg" xmlns:xlink="http://www.w3.org/1999/xlink" width="500" zoomAndPan="magnify" viewBox="0 0 375 374.999991" height="500" preserveAspectRatio="xMidYMid meet" version="1.0"><defs><clipPath id="eb0078aa06"><path d="M 145.226562 152.175781 L 252.042969 152.175781 L 252.042969 258.996094 L 145.226562 258.996094 Z M 145.226562 152.175781 " clip-rule="nonzero"/></clipPath><clipPath id="128ee83be9"><path d="M 198.636719 152.175781 C 169.136719 152.175781 145.226562 176.089844 145.226562 205.585938 C 145.226562 235.082031 169.136719 258.996094 198.636719 258.996094 C 228.132812 258.996094 252.042969 235.082031 252.042969 205.585938 C 252.042969 176.089844 228.132812 152.175781 198.636719 152.175781 " clip-rule="nonzero"/></clipPath><clipPath id="84bbe9a5c9"><path d="M 168.84375 171.703125 L 228.425781 171.703125 L 228.425781 239.464844 L 168.84375 239.464844 Z M 168.84375 171.703125 " clip-rule="nonzero"/></clipPath><clipPath id="8f75fa8328"><path d="M 198.636719 171.703125 C 182.179688 171.703125 168.84375 186.875 168.84375 205.585938 C 168.84375 224.296875 182.179688 239.46875 198.636719 239.46875 C 215.089844 239.46875 228.429688 224.296875 228.429688 205.585938 C 228.429688 186.875 215.089844 171.703125 198.636719 171.703125 " clip-rule="nonzero"/></clipPath><linearGradient x1="-0.00000886248" gradientTransform="matrix(0.477867, 0, 0, 0.477867, 168.84221, 171.704386)" y1="0" x2="124.687488" gradientUnits="userSpaceOnUse" y2="0" id="25b0d13fdc"><stop stop-opacity="1" stop-color="rgb(31.799316%, 43.899536%, 100%)" offset="0"/><stop stop-opacity="1" stop-color="rgb(32.064819%, 43.884277%, 99.908447%)" offset="0.00390625"/><stop stop-opacity="1" stop-color="rgb(32.331848%, 43.869019%, 99.81842%)" offset="0.0078125"/><stop stop-opacity="1" stop-color="rgb(32.597351%, 43.85376%, 99.728394%)" offset="0.0117188"/><stop stop-opacity="1" stop-color="rgb(32.86438%, 43.838501%, 99.638367%)" offset="0.015625"/><stop stop-opacity="1" stop-color="rgb(33.129883%, 43.823242%, 99.54834%)" offset="0.0195312"/><stop stop-opacity="1" stop-color="rgb(33.396912%, 43.807983%, 99.458313%)" offset="0.0234375"/><stop stop-opacity="1" stop-color="rgb(33.66394%, 43.792725%, 99.36676%)" offset="0.0273437"/><stop stop-opacity="1" stop-color="rgb(33.930969%, 43.777466%, 99.276733%)" offset="0.03125"/><stop stop-opacity="1" stop-color="rgb(34.196472%, 43.762207%, 99.186707%)" offset="0.0351562"/><stop stop-opacity="1" stop-color="rgb(34.463501%, 43.746948%, 99.09668%)" offset="0.0390625"/><stop stop-opacity="1" stop-color="rgb(34.729004%, 43.731689%, 99.006653%)" offset="0.0429688"/><stop stop-opacity="1" stop-color="rgb(34.996033%, 43.716431%, 98.916626%)" offset="0.046875"/><stop stop-opacity="1" stop-color="rgb(35.261536%, 43.701172%, 98.826599%)" offset="0.0507812"/><stop stop-opacity="1" stop-color="rgb(35.528564%, 43.685913%, 98.736572%)" offset="0.0546875"/><stop stop-opacity="1" stop-color="rgb(35.794067%, 43.670654%, 98.64502%)" offset="0.0585938"/><stop stop-opacity="1" stop-color="rgb(36.061096%, 43.655396%, 98.554993%)" offset="0.0625"/><stop stop-opacity="1" stop-color="rgb(36.328125%, 43.640137%, 98.464966%)" offset="0.0664062"/><stop stop-opacity="1" stop-color="rgb(36.595154%, 43.624878%, 98.374939%)" offset="0.0703125"/><stop stop-opacity="1" stop-color="rgb(36.860657%, 43.609619%, 98.284912%)" offset="0.0742188"/><stop stop-opacity="1" stop-color="rgb(37.127686%, 43.59436%, 98.194885%)" offset="0.078125"/><stop stop-opacity="1" stop-color="rgb(37.393188%, 43.579102%, 98.104858%)" offset="0.0820312"/><stop stop-opacity="1" stop-color="rgb(37.660217%, 43.563843%, 98.014832%)" offset="0.0859375"/><stop stop-opacity="1" stop-color="rgb(37.92572%, 43.548584%, 97.923279%)" offset="0.0898438"/><stop stop-opacity="1" stop-color="rgb(38.192749%, 43.533325%, 97.833252%)" offset="0.09375"/><stop stop-opacity="1" stop-color="rgb(38.458252%, 43.518066%, 97.743225%)" offset="0.0976562"/><stop stop-opacity="1" stop-color="rgb(38.725281%, 43.502808%, 97.653198%)" offset="0.101562"/><stop stop-opacity="1" stop-color="rgb(38.99231%, 43.487549%, 97.563171%)" offset="0.105469"/><stop stop-opacity="1" stop-color="rgb(39.259338%, 43.47229%, 97.473145%)" offset="0.109375"/><stop stop-opacity="1" stop-color="rgb(39.524841%, 43.457031%, 97.381592%)" offset="0.113281"/><stop stop-opacity="1" stop-color="rgb(39.79187%, 43.441772%, 97.291565%)" offset="0.117188"/><stop stop-opacity="1" stop-color="rgb(40.057373%, 43.426514%, 97.201538%)" offset="0.121094"/><stop stop-opacity="1" stop-color="rgb(40.324402%, 43.411255%, 97.111511%)" offset="0.125"/><stop stop-opacity="1" stop-color="rgb(40.589905%, 43.395996%, 97.021484%)" offset="0.128906"/><stop stop-opacity="1" stop-color="rgb(40.856934%, 43.380737%, 96.931458%)" offset="0.132812"/><stop stop-opacity="1" stop-color="rgb(41.122437%, 43.365479%, 96.841431%)" offset="0.136719"/><stop stop-opacity="1" stop-color="rgb(41.389465%, 43.35022%, 96.751404%)" offset="0.140625"/><stop stop-opacity="1" stop-color="rgb(41.654968%, 43.334961%, 96.659851%)" offset="0.144531"/><stop stop-opacity="1" stop-color="rgb(41.921997%, 43.319702%, 96.569824%)" offset="0.148438"/><stop stop-opacity="1" stop-color="rgb(42.189026%, 43.304443%, 96.479797%)" offset="0.152344"/><stop stop-opacity="1" stop-color="rgb(42.456055%, 43.289185%, 96.389771%)" offset="0.15625"/><stop stop-opacity="1" stop-color="rgb(42.721558%, 43.273926%, 96.299744%)" offset="0.160156"/><stop stop-opacity="1" stop-color="rgb(42.988586%, 43.258667%, 96.209717%)" offset="0.164062"/><stop stop-opacity="1" stop-color="rgb(43.254089%, 43.243408%, 96.11969%)" offset="0.167969"/><stop stop-opacity="1" stop-color="rgb(43.521118%, 43.229675%, 96.029663%)" offset="0.171875"/><stop stop-opacity="1" stop-color="rgb(43.786621%, 43.214417%, 95.93811%)" offset="0.175781"/><stop stop-opacity="1" stop-color="rgb(44.05365%, 43.199158%, 95.848083%)" offset="0.179688"/><stop stop-opacity="1" stop-color="rgb(44.319153%, 43.183899%, 95.758057%)" offset="0.183594"/><stop stop-opacity="1" stop-color="rgb(44.586182%, 43.16864%, 95.66803%)" offset="0.1875"/><stop stop-opacity="1" stop-color="rgb(44.85321%, 43.153381%, 95.578003%)" offset="0.191406"/><stop stop-opacity="1" stop-color="rgb(45.120239%, 43.138123%, 95.487976%)" offset="0.195313"/><stop stop-opacity="1" stop-color="rgb(45.385742%, 43.122864%, 95.396423%)" offset="0.199219"/><stop stop-opacity="1" stop-color="rgb(45.652771%, 43.107605%, 95.306396%)" offset="0.203125"/><stop stop-opacity="1" stop-color="rgb(45.918274%, 43.092346%, 95.21637%)" offset="0.207031"/><stop stop-opacity="1" stop-color="rgb(46.185303%, 43.077087%, 95.126343%)" offset="0.210938"/><stop stop-opacity="1" stop-color="rgb(46.450806%, 43.061829%, 95.036316%)" offset="0.214844"/><stop stop-opacity="1" stop-color="rgb(46.717834%, 43.04657%, 94.946289%)" offset="0.21875"/><stop stop-opacity="1" stop-color="rgb(46.983337%, 43.031311%, 94.856262%)" offset="0.222656"/><stop stop-opacity="1" stop-color="rgb(47.250366%, 43.016052%, 94.766235%)" offset="0.226562"/><stop stop-opacity="1" stop-color="rgb(47.515869%, 43.000793%, 94.674683%)" offset="0.230469"/><stop stop-opacity="1" stop-color="rgb(47.782898%, 42.985535%, 94.584656%)" offset="0.234375"/><stop stop-opacity="1" stop-color="rgb(48.049927%, 42.970276%, 94.494629%)" offset="0.238281"/><stop stop-opacity="1" stop-color="rgb(48.316956%, 42.955017%, 94.404602%)" offset="0.242188"/><stop stop-opacity="1" stop-color="rgb(48.582458%, 42.939758%, 94.314575%)" offset="0.246094"/><stop stop-opacity="1" stop-color="rgb(48.849487%, 42.9245%, 94.224548%)" offset="0.25"/><stop stop-opacity="1" stop-color="rgb(49.11499%, 42.909241%, 94.134521%)" offset="0.253906"/><stop stop-opacity="1" stop-color="rgb(49.382019%, 42.893982%, 94.044495%)" offset="0.257812"/><stop stop-opacity="1" stop-color="rgb(49.647522%, 42.878723%, 93.952942%)" offset="0.261719"/><stop stop-opacity="1" stop-color="rgb(49.914551%, 42.863464%, 93.862915%)" offset="0.265625"/><stop stop-opacity="1" stop-color="rgb(50.180054%, 42.848206%, 93.772888%)" offset="0.269531"/><stop stop-opacity="1" stop-color="rgb(50.447083%, 42.832947%, 93.682861%)" offset="0.273438"/><stop stop-opacity="1" stop-color="rgb(50.714111%, 42.817688%, 93.592834%)" offset="0.277344"/><stop stop-opacity="1" stop-color="rgb(50.98114%, 42.802429%, 93.502808%)" offset="0.28125"/><stop stop-opacity="1" stop-color="rgb(51.246643%, 42.78717%, 93.411255%)" offset="0.285156"/><stop stop-opacity="1" stop-color="rgb(51.513672%, 42.771912%, 93.321228%)" offset="0.289062"/><stop stop-opacity="1" stop-color="rgb(51.779175%, 42.756653%, 93.231201%)" offset="0.292969"/><stop stop-opacity="1" stop-color="rgb(52.046204%, 42.741394%, 93.141174%)" offset="0.296875"/><stop stop-opacity="1" stop-color="rgb(52.311707%, 42.726135%, 93.051147%)" offset="0.300781"/><stop stop-opacity="1" stop-color="rgb(52.578735%, 42.710876%, 92.961121%)" offset="0.304687"/><stop stop-opacity="1" stop-color="rgb(52.844238%, 42.695618%, 92.871094%)" offset="0.308594"/><stop stop-opacity="1" stop-color="rgb(53.111267%, 42.680359%, 92.781067%)" offset="0.3125"/><stop stop-opacity="1" stop-color="rgb(53.37677%, 42.6651%, 92.689514%)" offset="0.316406"/><stop stop-opacity="1" stop-color="rgb(53.643799%, 42.649841%, 92.599487%)" offset="0.320312"/><stop stop-opacity="1" stop-color="rgb(53.910828%, 42.634583%, 92.50946%)" offset="0.324219"/><stop stop-opacity="1" stop-color="rgb(54.177856%, 42.619324%, 92.419434%)" offset="0.328125"/><stop stop-opacity="1" stop-color="rgb(54.443359%, 42.604065%, 92.329407%)" offset="0.332031"/><stop stop-opacity="1" stop-color="rgb(54.710388%, 42.588806%, 92.23938%)" offset="0.335938"/><stop stop-opacity="1" stop-color="rgb(54.975891%, 42.573547%, 92.149353%)" offset="0.339844"/><stop stop-opacity="1" stop-color="rgb(55.24292%, 42.558289%, 92.059326%)" offset="0.34375"/><stop stop-opacity="1" stop-color="rgb(55.508423%, 42.54303%, 91.967773%)" offset="0.347656"/><stop stop-opacity="1" stop-color="rgb(55.775452%, 42.527771%, 91.877747%)" offset="0.351562"/><stop stop-opacity="1" stop-color="rgb(56.040955%, 42.512512%, 91.78772%)" offset="0.355469"/><stop stop-opacity="1" stop-color="rgb(56.307983%, 42.497253%, 91.697693%)" offset="0.359375"/><stop stop-opacity="1" stop-color="rgb(56.575012%, 42.481995%, 91.607666%)" offset="0.363281"/><stop stop-opacity="1" stop-color="rgb(56.842041%, 42.466736%, 91.517639%)" offset="0.367188"/><stop stop-opacity="1" stop-color="rgb(57.107544%, 42.451477%, 91.426086%)" offset="0.371094"/><stop stop-opacity="1" stop-color="rgb(57.374573%, 42.436218%, 91.33606%)" offset="0.375"/><stop stop-opacity="1" stop-color="rgb(57.640076%, 42.420959%, 91.246033%)" offset="0.378906"/><stop stop-opacity="1" stop-color="rgb(57.907104%, 42.405701%, 91.156006%)" offset="0.382812"/><stop stop-opacity="1" stop-color="rgb(58.172607%, 42.390442%, 91.065979%)" offset="0.386719"/><stop stop-opacity="1" stop-color="rgb(58.439636%, 42.375183%, 90.975952%)" offset="0.390625"/><stop stop-opacity="1" stop-color="rgb(58.705139%, 42.359924%, 90.885925%)" offset="0.394531"/><stop stop-opacity="1" stop-color="rgb(58.972168%, 42.344666%, 90.795898%)" offset="0.398437"/><stop stop-opacity="1" stop-color="rgb(59.239197%, 42.329407%, 90.704346%)" offset="0.402344"/><stop stop-opacity="1" stop-color="rgb(59.506226%, 42.314148%, 90.614319%)" offset="0.40625"/><stop stop-opacity="1" stop-color="rgb(59.771729%, 42.298889%, 90.524292%)" offset="0.410156"/><stop stop-opacity="1" stop-color="rgb(60.038757%, 42.285156%, 90.434265%)" offset="0.414062"/><stop stop-opacity="1" stop-color="rgb(60.30426%, 42.269897%, 90.344238%)" offset="0.417969"/><stop stop-opacity="1" stop-color="rgb(60.571289%, 42.254639%, 90.254211%)" offset="0.421875"/><stop stop-opacity="1" stop-color="rgb(60.836792%, 42.23938%, 90.164185%)" offset="0.425781"/><stop stop-opacity="1" stop-color="rgb(61.103821%, 42.224121%, 90.074158%)" offset="0.429687"/><stop stop-opacity="1" stop-color="rgb(61.369324%, 42.208862%, 89.982605%)" offset="0.433594"/><stop stop-opacity="1" stop-color="rgb(61.636353%, 42.193604%, 89.892578%)" offset="0.4375"/><stop stop-opacity="1" stop-color="rgb(61.901855%, 42.178345%, 89.802551%)" offset="0.441406"/><stop stop-opacity="1" stop-color="rgb(62.168884%, 42.163086%, 89.712524%)" offset="0.445312"/><stop stop-opacity="1" stop-color="rgb(62.435913%, 42.147827%, 89.622498%)" offset="0.449219"/><stop stop-opacity="1" stop-color="rgb(62.702942%, 42.132568%, 89.532471%)" offset="0.453125"/><stop stop-opacity="1" stop-color="rgb(62.968445%, 42.11731%, 89.440918%)" offset="0.457031"/><stop stop-opacity="1" stop-color="rgb(63.235474%, 42.102051%, 89.350891%)" offset="0.460937"/><stop stop-opacity="1" stop-color="rgb(63.500977%, 42.086792%, 89.260864%)" offset="0.464844"/><stop stop-opacity="1" stop-color="rgb(63.768005%, 42.071533%, 89.170837%)" offset="0.46875"/><stop stop-opacity="1" stop-color="rgb(64.033508%, 42.056274%, 89.080811%)" offset="0.472656"/><stop stop-opacity="1" stop-color="rgb(64.300537%, 42.041016%, 88.990784%)" offset="0.476562"/><stop stop-opacity="1" stop-color="rgb(64.56604%, 42.025757%, 88.900757%)" offset="0.480469"/><stop stop-opacity="1" stop-color="rgb(64.833069%, 42.010498%, 88.81073%)" offset="0.484375"/><stop stop-opacity="1" stop-color="rgb(65.100098%, 41.995239%, 88.719177%)" offset="0.488281"/><stop stop-opacity="1" stop-color="rgb(65.367126%, 41.97998%, 88.62915%)" offset="0.492187"/><stop stop-opacity="1" stop-color="rgb(65.632629%, 41.964722%, 88.539124%)" offset="0.496094"/><stop stop-opacity="1" stop-color="rgb(65.899658%, 41.949463%, 88.449097%)" offset="0.5"/><stop stop-opacity="1" stop-color="rgb(66.165161%, 41.934204%, 88.35907%)" offset="0.503906"/><stop stop-opacity="1" stop-color="rgb(66.43219%, 41.918945%, 88.269043%)" offset="0.507812"/><stop stop-opacity="1" stop-color="rgb(66.697693%, 41.903687%, 88.179016%)" offset="0.511719"/><stop stop-opacity="1" stop-color="rgb(66.964722%, 41.888428%, 88.088989%)" offset="0.515625"/><stop stop-opacity="1" stop-color="rgb(67.230225%, 41.873169%, 87.997437%)" offset="0.519531"/><stop stop-opacity="1" stop-color="rgb(67.497253%, 41.85791%, 87.90741%)" offset="0.523438"/><stop stop-opacity="1" stop-color="rgb(67.762756%, 41.842651%, 87.817383%)" offset="0.527344"/><stop stop-opacity="1" stop-color="rgb(68.029785%, 41.827393%, 87.727356%)" offset="0.53125"/><stop stop-opacity="1" stop-color="rgb(68.296814%, 41.812134%, 87.637329%)" offset="0.535156"/><stop stop-opacity="1" stop-color="rgb(68.563843%, 41.796875%, 87.547302%)" offset="0.539062"/><stop stop-opacity="1" stop-color="rgb(68.829346%, 41.781616%, 87.45575%)" offset="0.542969"/><stop stop-opacity="1" stop-color="rgb(69.096375%, 41.766357%, 87.365723%)" offset="0.546875"/><stop stop-opacity="1" stop-color="rgb(69.361877%, 41.751099%, 87.275696%)" offset="0.550781"/><stop stop-opacity="1" stop-color="rgb(69.628906%, 41.73584%, 87.185669%)" offset="0.554688"/><stop stop-opacity="1" stop-color="rgb(69.894409%, 41.720581%, 87.095642%)" offset="0.558594"/><stop stop-opacity="1" stop-color="rgb(70.161438%, 41.705322%, 87.005615%)" offset="0.5625"/><stop stop-opacity="1" stop-color="rgb(70.426941%, 41.690063%, 86.915588%)" offset="0.566406"/><stop stop-opacity="1" stop-color="rgb(70.69397%, 41.674805%, 86.825562%)" offset="0.570313"/><stop stop-opacity="1" stop-color="rgb(70.960999%, 41.659546%, 86.734009%)" offset="0.574219"/><stop stop-opacity="1" stop-color="rgb(71.228027%, 41.644287%, 86.643982%)" offset="0.578125"/><stop stop-opacity="1" stop-color="rgb(71.49353%, 41.629028%, 86.553955%)" offset="0.582031"/><stop stop-opacity="1" stop-color="rgb(71.760559%, 41.61377%, 86.463928%)" offset="0.585937"/><stop stop-opacity="1" stop-color="rgb(72.026062%, 41.598511%, 86.373901%)" offset="0.589844"/><stop stop-opacity="1" stop-color="rgb(72.293091%, 41.583252%, 86.283875%)" offset="0.59375"/><stop stop-opacity="1" stop-color="rgb(72.558594%, 41.567993%, 86.193848%)" offset="0.597656"/><stop stop-opacity="1" stop-color="rgb(72.825623%, 41.552734%, 86.103821%)" offset="0.601562"/><stop stop-opacity="1" stop-color="rgb(73.091125%, 41.537476%, 86.012268%)" offset="0.605469"/><stop stop-opacity="1" stop-color="rgb(73.358154%, 41.522217%, 85.922241%)" offset="0.609375"/><stop stop-opacity="1" stop-color="rgb(73.623657%, 41.506958%, 85.832214%)" offset="0.613281"/><stop stop-opacity="1" stop-color="rgb(73.890686%, 41.491699%, 85.742188%)" offset="0.617188"/><stop stop-opacity="1" stop-color="rgb(74.157715%, 41.47644%, 85.652161%)" offset="0.621094"/><stop stop-opacity="1" stop-color="rgb(74.424744%, 41.461182%, 85.562134%)" offset="0.625"/><stop stop-opacity="1" stop-color="rgb(74.690247%, 41.445923%, 85.470581%)" offset="0.628906"/><stop stop-opacity="1" stop-color="rgb(74.957275%, 41.430664%, 85.380554%)" offset="0.632812"/><stop stop-opacity="1" stop-color="rgb(75.222778%, 41.415405%, 85.290527%)" offset="0.636719"/><stop stop-opacity="1" stop-color="rgb(75.489807%, 41.400146%, 85.2005%)" offset="0.640625"/><stop stop-opacity="1" stop-color="rgb(75.75531%, 41.384888%, 85.110474%)" offset="0.644531"/><stop stop-opacity="1" stop-color="rgb(76.022339%, 41.369629%, 85.020447%)" offset="0.648438"/><stop stop-opacity="1" stop-color="rgb(76.287842%, 41.35437%, 84.93042%)" offset="0.652344"/><stop stop-opacity="1" stop-color="rgb(76.554871%, 41.339111%, 84.840393%)" offset="0.65625"/><stop stop-opacity="1" stop-color="rgb(76.821899%, 41.323853%, 84.74884%)" offset="0.660156"/><stop stop-opacity="1" stop-color="rgb(77.088928%, 41.31012%, 84.658813%)" offset="0.664063"/><stop stop-opacity="1" stop-color="rgb(77.354431%, 41.294861%, 84.568787%)" offset="0.667969"/><stop stop-opacity="1" stop-color="rgb(77.62146%, 41.279602%, 84.47876%)" offset="0.671875"/><stop stop-opacity="1" stop-color="rgb(77.886963%, 41.264343%, 84.388733%)" offset="0.675781"/><stop stop-opacity="1" stop-color="rgb(78.153992%, 41.249084%, 84.298706%)" offset="0.679687"/><stop stop-opacity="1" stop-color="rgb(78.419495%, 41.233826%, 84.208679%)" offset="0.683594"/><stop stop-opacity="1" stop-color="rgb(78.686523%, 41.218567%, 84.118652%)" offset="0.6875"/><stop stop-opacity="1" stop-color="rgb(78.952026%, 41.203308%, 84.0271%)" offset="0.691406"/><stop stop-opacity="1" stop-color="rgb(79.219055%, 41.188049%, 83.937073%)" offset="0.695312"/><stop stop-opacity="1" stop-color="rgb(79.486084%, 41.172791%, 83.847046%)" offset="0.699219"/><stop stop-opacity="1" stop-color="rgb(79.753113%, 41.157532%, 83.757019%)" offset="0.703125"/><stop stop-opacity="1" stop-color="rgb(80.018616%, 41.142273%, 83.666992%)" offset="0.707031"/><stop stop-opacity="1" stop-color="rgb(80.285645%, 41.127014%, 83.576965%)" offset="0.710938"/><stop stop-opacity="1" stop-color="rgb(80.551147%, 41.111755%, 83.485413%)" offset="0.714844"/><stop stop-opacity="1" stop-color="rgb(80.818176%, 41.096497%, 83.395386%)" offset="0.71875"/><stop stop-opacity="1" stop-color="rgb(81.083679%, 41.081238%, 83.305359%)" offset="0.722656"/><stop stop-opacity="1" stop-color="rgb(81.350708%, 41.065979%, 83.215332%)" offset="0.726562"/><stop stop-opacity="1" stop-color="rgb(81.616211%, 41.05072%, 83.125305%)" offset="0.730469"/><stop stop-opacity="1" stop-color="rgb(81.88324%, 41.035461%, 83.035278%)" offset="0.734375"/><stop stop-opacity="1" stop-color="rgb(82.148743%, 41.020203%, 82.945251%)" offset="0.738281"/><stop stop-opacity="1" stop-color="rgb(82.415771%, 41.004944%, 82.855225%)" offset="0.742188"/><stop stop-opacity="1" stop-color="rgb(82.6828%, 40.989685%, 82.763672%)" offset="0.746094"/><stop stop-opacity="1" stop-color="rgb(82.949829%, 40.974426%, 82.673645%)" offset="0.75"/><stop stop-opacity="1" stop-color="rgb(83.215332%, 40.959167%, 82.583618%)" offset="0.753906"/><stop stop-opacity="1" stop-color="rgb(83.482361%, 40.943909%, 82.493591%)" offset="0.757813"/><stop stop-opacity="1" stop-color="rgb(83.747864%, 40.92865%, 82.403564%)" offset="0.761719"/><stop stop-opacity="1" stop-color="rgb(84.014893%, 40.913391%, 82.313538%)" offset="0.765625"/><stop stop-opacity="1" stop-color="rgb(84.280396%, 40.898132%, 82.223511%)" offset="0.769531"/><stop stop-opacity="1" stop-color="rgb(84.547424%, 40.882874%, 82.133484%)" offset="0.773437"/><stop stop-opacity="1" stop-color="rgb(84.812927%, 40.867615%, 82.041931%)" offset="0.777344"/><stop stop-opacity="1" stop-color="rgb(85.079956%, 40.852356%, 81.951904%)" offset="0.78125"/><stop stop-opacity="1" stop-color="rgb(85.346985%, 40.837097%, 81.861877%)" offset="0.785156"/><stop stop-opacity="1" stop-color="rgb(85.614014%, 40.821838%, 81.771851%)" offset="0.789062"/><stop stop-opacity="1" stop-color="rgb(85.879517%, 40.80658%, 81.681824%)" offset="0.792969"/><stop stop-opacity="1" stop-color="rgb(86.146545%, 40.791321%, 81.591797%)" offset="0.796875"/><stop stop-opacity="1" stop-color="rgb(86.412048%, 40.776062%, 81.500244%)" offset="0.800781"/><stop stop-opacity="1" stop-color="rgb(86.679077%, 40.760803%, 81.410217%)" offset="0.804688"/><stop stop-opacity="1" stop-color="rgb(86.94458%, 40.745544%, 81.32019%)" offset="0.808594"/><stop stop-opacity="1" stop-color="rgb(87.211609%, 40.730286%, 81.230164%)" offset="0.8125"/><stop stop-opacity="1" stop-color="rgb(87.477112%, 40.715027%, 81.140137%)" offset="0.816406"/><stop stop-opacity="1" stop-color="rgb(87.744141%, 40.699768%, 81.05011%)" offset="0.820312"/><stop stop-opacity="1" stop-color="rgb(88.009644%, 40.684509%, 80.960083%)" offset="0.824219"/><stop stop-opacity="1" stop-color="rgb(88.276672%, 40.66925%, 80.870056%)" offset="0.828125"/><stop stop-opacity="1" stop-color="rgb(88.543701%, 40.653992%, 80.778503%)" offset="0.832031"/><stop stop-opacity="1" stop-color="rgb(88.81073%, 40.638733%, 80.688477%)" offset="0.835938"/><stop stop-opacity="1" stop-color="rgb(89.076233%, 40.623474%, 80.59845%)" offset="0.839844"/><stop stop-opacity="1" stop-color="rgb(89.343262%, 40.608215%, 80.508423%)" offset="0.84375"/><stop stop-opacity="1" stop-color="rgb(89.608765%, 40.592957%, 80.418396%)" offset="0.847656"/><stop stop-opacity="1" stop-color="rgb(89.875793%, 40.577698%, 80.328369%)" offset="0.851563"/><stop stop-opacity="1" stop-color="rgb(90.141296%, 40.562439%, 80.238342%)" offset="0.855469"/><stop stop-opacity="1" stop-color="rgb(90.408325%, 40.54718%, 80.148315%)" offset="0.859375"/><stop stop-opacity="1" stop-color="rgb(90.673828%, 40.531921%, 80.056763%)" offset="0.863281"/><stop stop-opacity="1" stop-color="rgb(90.940857%, 40.516663%, 79.966736%)" offset="0.867187"/><stop stop-opacity="1" stop-color="rgb(91.207886%, 40.501404%, 79.876709%)" offset="0.871094"/><stop stop-opacity="1" stop-color="rgb(91.474915%, 40.486145%, 79.786682%)" offset="0.875"/><stop stop-opacity="1" stop-color="rgb(91.740417%, 40.470886%, 79.696655%)" offset="0.878906"/><stop stop-opacity="1" stop-color="rgb(92.007446%, 40.455627%, 79.606628%)" offset="0.882812"/><stop stop-opacity="1" stop-color="rgb(92.272949%, 40.440369%, 79.515076%)" offset="0.886719"/><stop stop-opacity="1" stop-color="rgb(92.539978%, 40.42511%, 79.425049%)" offset="0.890625"/><stop stop-opacity="1" stop-color="rgb(92.805481%, 40.409851%, 79.335022%)" offset="0.894531"/><stop stop-opacity="1" stop-color="rgb(93.07251%, 40.394592%, 79.244995%)" offset="0.898438"/><stop stop-opacity="1" stop-color="rgb(93.338013%, 40.379333%, 79.154968%)" offset="0.902344"/><stop stop-opacity="1" stop-color="rgb(93.605042%, 40.365601%, 79.064941%)" offset="0.90625"/><stop stop-opacity="1" stop-color="rgb(93.870544%, 40.350342%, 78.974915%)" offset="0.910156"/><stop stop-opacity="1" stop-color="rgb(94.137573%, 40.335083%, 78.884888%)" offset="0.914062"/><stop stop-opacity="1" stop-color="rgb(94.404602%, 40.319824%, 78.793335%)" offset="0.917969"/><stop stop-opacity="1" stop-color="rgb(94.671631%, 40.304565%, 78.703308%)" offset="0.921875"/><stop stop-opacity="1" stop-color="rgb(94.937134%, 40.289307%, 78.613281%)" offset="0.925781"/><stop stop-opacity="1" stop-color="rgb(95.204163%, 40.274048%, 78.523254%)" offset="0.929688"/><stop stop-opacity="1" stop-color="rgb(95.469666%, 40.258789%, 78.433228%)" offset="0.933594"/><stop stop-opacity="1" stop-color="rgb(95.736694%, 40.24353%, 78.343201%)" offset="0.9375"/><stop stop-opacity="1" stop-color="rgb(96.002197%, 40.228271%, 78.253174%)" offset="0.941406"/><stop stop-opacity="1" stop-color="rgb(96.269226%, 40.213013%, 78.163147%)" offset="0.945313"/><stop stop-opacity="1" stop-color="rgb(96.534729%, 40.197754%, 78.071594%)" offset="0.949219"/><stop stop-opacity="1" stop-color="rgb(96.801758%, 40.182495%, 77.981567%)" offset="0.953125"/><stop stop-opacity="1" stop-color="rgb(97.068787%, 40.167236%, 77.891541%)" offset="0.957031"/><stop stop-opacity="1" stop-color="rgb(97.335815%, 40.151978%, 77.801514%)" offset="0.960937"/><stop stop-opacity="1" stop-color="rgb(97.601318%, 40.136719%, 77.711487%)" offset="0.964844"/><stop stop-opacity="1" stop-color="rgb(97.868347%, 40.12146%, 77.62146%)" offset="0.96875"/><stop stop-opacity="1" stop-color="rgb(98.13385%, 40.106201%, 77.531433%)" offset="0.972656"/><stop stop-opacity="1" stop-color="rgb(98.400879%, 40.090942%, 77.441406%)" offset="0.976562"/><stop stop-opacity="1" stop-color="rgb(98.666382%, 40.075684%, 77.349854%)" offset="0.980469"/><stop stop-opacity="1" stop-color="rgb(98.933411%, 40.060425%, 77.259827%)" offset="0.984375"/><stop stop-opacity="1" stop-color="rgb(99.198914%, 40.045166%, 77.1698%)" offset="0.988281"/><stop stop-opacity="1" stop-color="rgb(99.465942%, 40.029907%, 77.079773%)" offset="0.992188"/><stop stop-opacity="1" stop-color="rgb(99.731445%, 40.014648%, 76.989746%)" offset="0.996094"/><stop stop-opacity="1" stop-color="rgb(99.998474%, 39.99939%, 76.899719%)" offset="1"/></linearGradient><clipPath id="ee85f4128d"><path d="M 253 191 L 287.550781 191 L 287.550781 205 L 253 205 Z M 253 191 " clip-rule="nonzero"/></clipPath><clipPath id="372d622deb"><path d="M 133.019531 157.335938 L 251 157.335938 L 251 254 L 133.019531 254 Z M 133.019531 157.335938 " clip-rule="nonzero"/></clipPath></defs><path fill="#8640b2" d="M 105.957031 264.246094 C 103.976562 261.554688 102.394531 258.699219 101.046875 255.769531 C 99.304688 251.964844 98.117188 247.84375 97.484375 243.722656 C 97.40625 243.089844 97.328125 242.457031 97.246094 241.820312 C 97.246094 241.820312 97.246094 241.820312 97.246094 241.742188 C 96.21875 236.117188 92.8125 230.964844 87.507812 227.875 C 86.164062 227.082031 84.816406 226.527344 83.472656 226.054688 C 82.996094 225.972656 82.523438 226.054688 82.203125 226.371094 C 81.886719 226.6875 81.730469 227.164062 81.886719 227.558594 C 84.105469 235.957031 85.292969 247.527344 90.519531 253.628906 L 90.519531 253.707031 C 90.519531 253.707031 90.519531 253.707031 90.597656 253.789062 C 90.992188 254.34375 91.308594 254.816406 91.707031 255.292969 C 94.160156 258.304688 97.007812 261.078125 100.175781 263.375 C 101.523438 264.328125 102.949219 265.277344 104.371094 266.070312 C 104.847656 266.308594 105.480469 266.226562 105.875 265.753906 C 106.273438 265.355469 106.273438 264.722656 105.957031 264.246094 Z M 105.957031 264.246094 " fill-opacity="1" fill-rule="evenodd"/><path fill="#8640b2" d="M 110.390625 261.234375 C 110.308594 260.917969 110.308594 260.679688 110.230469 260.363281 C 109.597656 256.242188 109.519531 251.964844 109.914062 247.84375 C 109.992188 247.210938 110.074219 246.578125 110.230469 245.941406 C 110.230469 245.941406 110.230469 245.863281 110.230469 245.863281 C 110.707031 240.15625 108.726562 234.292969 104.371094 229.9375 C 103.265625 228.828125 102.15625 227.953125 100.890625 227.164062 C 100.492188 226.925781 100.097656 226.84375 99.621094 227.082031 C 99.226562 227.320312 98.988281 227.71875 98.988281 228.191406 C 99.066406 233.265625 99.226562 235.71875 100.253906 241.265625 L 100.253906 241.347656 C 100.253906 241.347656 100.253906 241.425781 100.253906 241.425781 L 100.253906 241.503906 C 100.335938 242.058594 100.414062 242.695312 100.492188 243.328125 C 101.046875 247.132812 102.15625 250.933594 103.816406 254.5 C 105.003906 257.195312 106.429688 259.808594 108.171875 262.1875 C 108.488281 262.664062 109.121094 262.820312 109.675781 262.582031 C 110.152344 262.34375 110.46875 261.789062 110.390625 261.234375 Z M 110.390625 261.234375 " fill-opacity="1" fill-rule="evenodd"/><path fill="#8640b2" d="M 119.097656 269.792969 C 119.574219 265.753906 120.523438 261.710938 122.027344 257.90625 C 122.265625 257.351562 122.503906 256.796875 122.738281 256.164062 C 122.738281 256.164062 122.738281 256.164062 122.820312 256.085938 C 124.71875 250.695312 124.324219 244.515625 121.234375 239.207031 C 120.523438 237.859375 119.652344 236.671875 118.621094 235.5625 C 118.304688 235.246094 117.910156 235.085938 117.433594 235.246094 C 116.960938 235.324219 116.644531 235.640625 116.566406 236.117188 C 114.1875 244.4375 111.734375 250.777344 113.160156 259.890625 C 113.476562 261.789062 113.871094 263.691406 114.425781 265.515625 L 115.773438 269.875 C 115.851562 270.269531 116.246094 270.585938 116.722656 270.746094 C 117.039062 270.746094 117.355469 270.824219 117.671875 270.902344 C 117.988281 270.984375 118.304688 270.902344 118.621094 270.664062 C 118.859375 270.507812 119.019531 270.191406 119.097656 269.792969 Z M 108.25 267.101562 L 108.015625 267.890625 C 108.570312 268.128906 109.042969 268.367188 109.519531 268.527344 L 109.4375 268.445312 C 109.042969 267.972656 108.648438 267.574219 108.25 267.101562 Z M 108.25 267.101562 " fill-opacity="1" fill-rule="evenodd"/><path fill="#8640b2" d="M 293.824219 264.246094 C 295.726562 261.554688 297.386719 258.699219 298.734375 255.769531 C 300.394531 251.964844 301.582031 247.84375 302.21875 243.722656 C 302.296875 243.089844 302.375 242.457031 302.453125 241.820312 C 302.453125 241.820312 302.453125 241.820312 302.535156 241.742188 C 303.484375 236.117188 306.886719 230.964844 312.273438 227.875 C 313.539062 227.082031 314.964844 226.527344 316.308594 226.054688 C 316.785156 225.972656 317.179688 226.054688 317.574219 226.371094 C 317.894531 226.6875 317.972656 227.164062 317.894531 227.558594 C 315.675781 235.957031 314.410156 247.527344 309.261719 253.628906 L 309.261719 253.707031 C 309.261719 253.707031 309.183594 253.707031 309.183594 253.789062 C 308.789062 254.34375 308.390625 254.816406 308.074219 255.292969 C 305.621094 258.304688 302.769531 261.078125 299.527344 263.375 C 298.257812 264.328125 296.832031 265.277344 295.410156 266.070312 C 294.933594 266.308594 294.300781 266.226562 293.90625 265.753906 C 293.507812 265.355469 293.429688 264.722656 293.824219 264.246094 Z M 293.824219 264.246094 " fill-opacity="1" fill-rule="evenodd"/><path fill="#8640b2" d="M 289.390625 261.234375 C 289.390625 260.917969 289.472656 260.679688 289.550781 260.363281 C 290.183594 256.242188 290.261719 251.964844 289.789062 247.84375 C 289.707031 247.210938 289.628906 246.578125 289.550781 245.941406 C 289.550781 245.941406 289.550781 245.863281 289.550781 245.863281 C 289.074219 240.15625 291.054688 234.292969 295.410156 229.9375 C 296.4375 228.828125 297.625 227.953125 298.8125 227.164062 C 299.207031 226.925781 299.683594 226.84375 300.078125 227.082031 C 300.476562 227.320312 300.714844 227.71875 300.714844 228.191406 C 300.714844 233.265625 300.554688 235.71875 299.527344 241.265625 L 299.527344 241.347656 C 299.527344 241.347656 299.527344 241.425781 299.527344 241.425781 L 299.527344 241.503906 C 299.445312 242.058594 299.367188 242.695312 299.289062 243.328125 C 298.65625 247.132812 297.546875 250.933594 295.960938 254.5 C 294.773438 257.195312 293.351562 259.808594 291.609375 262.1875 C 291.292969 262.664062 290.660156 262.820312 290.105469 262.582031 C 289.550781 262.34375 289.3125 261.789062 289.390625 261.234375 Z M 289.390625 261.234375 " fill-opacity="1" fill-rule="evenodd"/><path fill="#8640b2" d="M 280.683594 269.792969 C 280.207031 265.753906 279.257812 261.710938 277.753906 257.90625 C 277.515625 257.351562 277.277344 256.796875 277.042969 256.164062 C 276.960938 256.164062 276.960938 256.164062 276.960938 256.085938 C 275.0625 250.695312 275.378906 244.515625 278.464844 239.207031 C 279.257812 237.859375 280.128906 236.671875 281.15625 235.5625 C 281.394531 235.246094 281.871094 235.085938 282.34375 235.246094 C 282.742188 235.324219 283.058594 235.640625 283.214844 236.117188 C 285.589844 244.4375 288.046875 250.777344 286.621094 259.890625 C 286.304688 261.789062 285.828125 263.691406 285.273438 265.515625 L 284.007812 269.875 C 283.851562 270.269531 283.53125 270.585938 283.058594 270.746094 C 282.742188 270.746094 282.425781 270.824219 282.109375 270.902344 C 281.792969 270.984375 281.476562 270.902344 281.15625 270.664062 C 280.839844 270.507812 280.683594 270.191406 280.683594 269.792969 Z M 291.527344 267.101562 L 291.6875 267.890625 C 291.210938 268.128906 290.738281 268.367188 290.183594 268.527344 L 290.339844 268.445312 C 290.738281 267.972656 291.132812 267.574219 291.527344 267.101562 Z M 291.527344 267.101562 " fill-opacity="1" fill-rule="evenodd"/><path fill="#8640b2" d="M 194.386719 306.800781 C 194.703125 304.421875 194.863281 302.046875 194.863281 299.507812 C 194.863281 280.253906 184.808594 263.375 169.609375 253.707031 L 165.886719 251.570312 C 165.886719 251.570312 165.886719 251.570312 165.808594 251.570312 C 165.808594 251.570312 165.808594 251.570312 165.808594 251.488281 L 147.441406 240.871094 L 127.171875 229.222656 C 126.855469 228.984375 126.460938 228.984375 126.144531 229.144531 C 125.75 229.300781 125.511719 229.539062 125.351562 229.9375 C 125.035156 231.125 124.796875 232.3125 124.796875 233.660156 C 124.796875 250.300781 146.175781 241.902344 146.175781 259.890625 C 146.175781 265.832031 142.609375 270.902344 137.464844 273.042969 C 137.386719 273.042969 137.386719 273.042969 137.308594 273.042969 C 133.585938 273.992188 129.707031 274.546875 125.75 274.546875 C 115.535156 274.546875 106.191406 271.300781 98.515625 265.671875 C 95.109375 263.21875 92.101562 260.363281 89.488281 257.035156 C 89.09375 256.5625 88.695312 256.085938 88.300781 255.53125 C 88.300781 255.53125 88.300781 255.53125 88.222656 255.453125 C 84.578125 251.09375 79.039062 248.320312 72.863281 248.320312 C 71.359375 248.320312 69.855469 248.476562 68.429688 248.796875 C 68.035156 248.953125 67.636719 249.269531 67.558594 249.667969 C 67.398438 250.140625 67.480469 250.539062 67.875 250.933594 L 91.941406 275.023438 L 92.339844 275.421875 L 99.621094 282.710938 C 99.78125 282.867188 99.9375 282.949219 100.175781 283.027344 C 131.132812 291.347656 161.769531 299.507812 192.804688 307.828125 C 193.199219 307.988281 193.515625 307.910156 193.835938 307.671875 C 194.152344 307.511719 194.308594 307.195312 194.386719 306.800781 Z M 205.394531 306.800781 C 205.074219 304.421875 204.917969 302.046875 204.917969 299.507812 C 204.917969 280.253906 214.972656 263.375 230.09375 253.707031 C 230.171875 253.707031 230.171875 253.707031 230.171875 253.707031 L 233.894531 251.570312 C 233.894531 251.570312 233.972656 251.570312 233.972656 251.488281 L 252.339844 240.871094 L 272.609375 229.222656 C 272.925781 228.984375 273.242188 228.984375 273.636719 229.144531 C 274.03125 229.300781 274.269531 229.539062 274.347656 229.9375 C 274.746094 231.125 274.902344 232.3125 274.902344 233.660156 C 274.902344 250.300781 253.527344 241.902344 253.527344 259.890625 C 253.527344 265.832031 257.167969 270.902344 262.316406 273.042969 C 262.316406 273.042969 262.394531 273.042969 262.472656 273.042969 C 266.195312 273.992188 269.996094 274.546875 274.03125 274.546875 C 284.167969 274.546875 293.585938 271.300781 301.265625 265.671875 C 304.671875 263.21875 307.679688 260.363281 310.292969 257.035156 C 310.6875 256.5625 311.085938 256.085938 311.480469 255.53125 C 311.480469 255.53125 311.480469 255.53125 311.480469 255.453125 C 315.199219 251.09375 320.742188 248.320312 326.917969 248.320312 C 328.421875 248.320312 329.925781 248.476562 331.273438 248.796875 C 331.746094 248.953125 332.0625 249.269531 332.222656 249.667969 C 332.378906 250.140625 332.222656 250.539062 331.90625 250.933594 L 307.757812 275.023438 L 307.441406 275.421875 L 300.160156 282.710938 C 300 282.867188 299.84375 282.949219 299.605469 283.027344 C 268.648438 291.347656 238.011719 299.507812 206.976562 307.828125 C 206.582031 307.988281 206.261719 307.910156 205.945312 307.671875 C 205.628906 307.511719 205.472656 307.195312 205.394531 306.800781 Z M 205.394531 306.800781 " fill-opacity="1" fill-rule="evenodd"/><path fill="#000000" d="M 199.851562 259.253906 C 116.644531 175.339844 168.023438 146.257812 199.851562 191.503906 C 231.757812 146.257812 283.136719 175.339844 199.851562 259.253906 Z M 199.851562 259.253906 " fill-opacity="1" fill-rule="evenodd"/><g clip-path="url(#eb0078aa06)"><g clip-path="url(#128ee83be9)"><path fill="#8640b2" d="M 145.226562 152.175781 L 252.042969 152.175781 L 252.042969 258.996094 L 145.226562 258.996094 Z M 145.226562 152.175781 " fill-opacity="1" fill-rule="nonzero"/></g></g><g clip-path="url(#84bbe9a5c9)"><g clip-path="url(#8f75fa8328)"><path fill="url(#25b0d13fdc)" d="M 168.84375 171.703125 L 168.84375 239.464844 L 228.425781 239.464844 L 228.425781 171.703125 Z M 168.84375 171.703125 " fill-rule="nonzero"/></g></g><g clip-path="url(#ee85f4128d)"><path fill="#000000" d="M 287.351562 193.648438 C 287.128906 192.816406 286.191406 192.59375 284.972656 193.089844 C 272.757812 198.191406 265.015625 201.1875 262.585938 201.683594 C 258.4375 202.574219 255.785156 201.574219 256.171875 199.191406 C 256.335938 198.136719 256.945312 196.75 257.773438 195.753906 C 258.546875 194.8125 258.4375 195.644531 257.554688 197.472656 C 256.667969 199.300781 256.613281 199.855469 257.222656 200.464844 C 257.773438 200.964844 259.597656 200.796875 260.316406 200.1875 C 260.980469 199.578125 261.808594 196.863281 261.976562 194.699219 C 262.140625 193.148438 262.085938 192.980469 261.480469 192.371094 C 258.992188 189.878906 253.792969 194.589844 253.792969 199.414062 C 253.792969 201.40625 254.957031 202.90625 257.167969 203.679688 C 259.101562 204.402344 261.921875 204.070312 266.566406 202.683594 C 269.050781 201.90625 284.972656 196.03125 286.078125 195.421875 C 287.183594 194.867188 287.515625 194.367188 287.351562 193.648438 Z M 287.351562 193.648438 " fill-opacity="1" fill-rule="nonzero"/></g><g clip-path="url(#372d622deb)"><path fill="#000000" d="M 243.015625 191.539062 C 241.246094 192.207031 240.804688 192.484375 238.648438 194.144531 L 236.988281 195.476562 L 236.820312 194.644531 C 236.488281 192.816406 234.886719 192.261719 231.792969 192.871094 C 228.308594 193.589844 220.511719 196.808594 219.628906 197.859375 C 219.351562 198.246094 219.242188 198.246094 218.578125 197.75 C 218.027344 197.359375 217.527344 197.195312 216.699219 197.25 C 216.089844 197.304688 215.152344 197.304688 214.652344 197.304688 C 209.070312 197.140625 206.417969 197.304688 203.265625 197.859375 C 201.386719 198.191406 199.839844 198.46875 199.839844 198.414062 C 199.726562 198.359375 203.707031 187.828125 207.136719 178.902344 C 208.351562 175.742188 209.898438 171.582031 210.5625 169.589844 C 211.390625 167.261719 212 165.820312 212.332031 165.597656 C 212.941406 165.152344 212.996094 163.15625 212.441406 162.324219 C 211.945312 161.605469 210.785156 161.382812 209.84375 161.828125 C 209.070312 162.269531 208.792969 162.824219 208.792969 164.265625 C 208.792969 166.152344 207.023438 171.695312 201.496094 187.328125 C 199.726562 192.316406 198.070312 196.972656 197.847656 197.695312 L 197.40625 198.96875 L 195.472656 199.414062 C 188.007812 201.128906 180.324219 203.679688 172.96875 206.953125 C 171.808594 207.449219 170.8125 207.839844 170.757812 207.839844 C 170.703125 207.839844 171.144531 206.398438 171.808594 204.625 C 176.839844 190.488281 179.769531 180.898438 180.820312 174.855469 C 181.375 171.582031 181.375 166.871094 180.820312 164.820312 C 179.992188 161.660156 178.167969 159.277344 175.679688 158.058594 C 174.351562 157.390625 174.019531 157.335938 171.476562 157.335938 C 169.046875 157.335938 168.4375 157.445312 166.335938 158.167969 C 155.226562 162.046875 142.566406 173.96875 136.042969 186.71875 C 133.886719 190.929688 133.054688 193.648438 133.054688 196.417969 C 133.054688 198.414062 133.113281 198.855469 133.554688 199.46875 C 134.382812 200.574219 135.488281 201.074219 137.921875 201.351562 C 139.96875 201.628906 140.296875 201.574219 141.183594 201.183594 C 142.398438 200.628906 142.730469 199.800781 142.066406 199.023438 C 141.679688 198.636719 141.292969 198.523438 139.691406 198.523438 C 137.257812 198.523438 136.761719 198.414062 136.429688 197.527344 C 135.542969 195.363281 138.476562 187.714844 142.621094 181.503906 C 147.097656 174.796875 154.449219 167.425781 160.367188 163.820312 C 166.003906 160.328125 170.648438 158.941406 173.632812 159.828125 C 176.289062 160.605469 177.78125 162.433594 178.664062 166.039062 C 179.164062 167.867188 179.21875 168.644531 179.050781 171.46875 C 178.777344 178.011719 177.007812 184.164062 168.992188 207.335938 L 168.4375 209 L 165.066406 210.828125 C 157.546875 214.933594 152.460938 218.535156 149.089844 222.027344 C 145.828125 225.410156 145.273438 227.40625 146.710938 229.957031 C 147.597656 231.453125 148.09375 231.785156 149.363281 231.785156 C 150.414062 231.785156 151.519531 230.898438 151.519531 230.066406 C 151.519531 229.789062 151.078125 229.234375 150.582031 228.847656 C 149.144531 227.792969 148.976562 227.460938 149.089844 226.574219 C 149.363281 224.523438 153.070312 220.976562 158.929688 217.09375 C 161.96875 215.042969 166.777344 212.160156 167.109375 212.160156 C 167.222656 212.160156 166.003906 215.820312 164.511719 220.253906 C 159.867188 234.167969 158.375 241.488281 159.039062 246.476562 C 159.539062 250.355469 160.367188 252.296875 161.859375 253.238281 C 163.460938 254.179688 165.230469 253.738281 167.167969 251.90625 C 168.492188 250.632812 168.660156 249.914062 167.71875 249.304688 C 166.945312 248.804688 166.0625 249.136719 164.734375 250.410156 C 163.574219 251.519531 163.242188 251.410156 162.246094 249.414062 C 159.703125 244.3125 161.085938 235.664062 167.386719 217.207031 L 169.488281 210.996094 L 170.59375 210.386719 C 172.253906 209.5 177.617188 207.171875 181.320312 205.839844 C 185.851562 204.175781 196.082031 201.296875 196.355469 201.628906 C 196.410156 201.683594 196.023438 203.179688 195.472656 204.953125 C 191.546875 217.480469 189.886719 226.628906 189.832031 235.332031 C 189.832031 239.769531 189.886719 240.320312 190.332031 241.265625 C 190.773438 242.152344 190.9375 242.261719 191.769531 242.316406 C 193.480469 242.484375 194.421875 240.875 193.207031 240.042969 C 192.488281 239.492188 192.15625 236.332031 192.320312 231.785156 C 192.707031 223.359375 194.367188 214.875 197.683594 204.730469 L 198.898438 200.90625 L 202.160156 200.351562 C 205.421875 199.742188 212.773438 199.410156 213.21875 199.851562 C 213.328125 199.964844 213.164062 200.742188 212.941406 201.625 C 212 204.566406 212.441406 207.113281 213.992188 208.335938 C 214.875 209.054688 216.8125 209.054688 218.304688 208.335938 C 219.90625 207.558594 223.832031 203.566406 224.714844 201.847656 C 225.546875 200.074219 225.546875 199.632812 224.605469 198.800781 L 223.886719 198.078125 L 226.097656 197.136719 C 228.808594 196.027344 232.234375 194.972656 233.5625 194.917969 L 234.558594 194.863281 L 234.5 196.472656 C 234.5 197.582031 234.335938 198.46875 233.839844 199.519531 C 233.339844 200.683594 233.175781 201.238281 233.285156 202.015625 C 233.398438 202.679688 233.121094 204.675781 232.179688 208.890625 C 230.578125 216.429688 229.804688 220.585938 229.304688 224.246094 C 229.03125 225.851562 228.753906 227.570312 228.644531 228.125 C 228.308594 229.34375 228.808594 230.289062 229.859375 230.289062 C 230.6875 230.289062 231.296875 229.734375 231.683594 228.570312 C 231.960938 227.847656 231.902344 227.625 231.40625 226.960938 C 230.910156 226.296875 230.855469 226.019531 231.019531 224.523438 C 231.296875 221.527344 232.179688 217.203125 233.839844 210.164062 C 235.332031 203.789062 235.609375 202.847656 236.273438 202.847656 C 236.769531 202.789062 237.433594 201.960938 237.433594 201.347656 C 237.433594 199.574219 240.972656 195.417969 243.515625 194.140625 C 244.566406 193.644531 245.226562 193.476562 246.113281 193.53125 C 247.21875 193.585938 247.4375 193.753906 247.9375 194.53125 C 248.433594 195.195312 248.546875 195.640625 248.433594 196.46875 C 248.160156 198.742188 245.671875 202.289062 244.34375 202.289062 C 243.347656 202.289062 242.574219 200.902344 242.851562 199.519531 C 242.960938 198.964844 243.292969 198.632812 244.011719 198.300781 C 245.285156 197.632812 245.617188 196.96875 245.007812 196.246094 C 244.125 195.140625 241.691406 195.804688 240.53125 197.523438 C 238.984375 199.796875 240.863281 203.953125 243.570312 204.453125 C 245.5625 204.839844 248.492188 202.511719 250.09375 199.351562 C 250.757812 197.910156 250.867188 197.414062 250.867188 195.859375 C 250.867188 194.363281 250.8125 193.917969 250.203125 193.03125 C 248.820312 190.984375 246.054688 190.375 243.015625 191.539062 Z M 222.171875 201.351562 C 221.453125 202.574219 219.078125 205.121094 217.859375 205.898438 C 216.421875 206.785156 215.648438 206.839844 215.316406 205.953125 C 215.039062 205.175781 215.207031 203.957031 215.871094 202.128906 C 216.367188 200.851562 216.367188 200.796875 217.417969 200.796875 C 217.96875 200.796875 218.632812 200.632812 218.855469 200.410156 C 219.1875 200.132812 219.464844 200.132812 220.125 200.300781 C 220.570312 200.464844 221.34375 200.574219 221.785156 200.574219 L 222.671875 200.574219 Z M 222.171875 201.351562 " fill-opacity="1" fill-rule="nonzero"/></g></svg>